<svg width="423" height="96" viewBox="0 0 423 96" fill="none" xmlns="http://www.w3.org/2000/svg">
<g id="icons">
<g id="linkedin">
<rect id="Rectangle 7" x="323" width="100" height="96" rx="10" fill="#2B3440"/>
<path id="Vector" d="M393.452 23H351.548C347.933 23 345 25.6667 345 28.9524V67.0476C345 70.3333 347.933 73 351.548 73H393.452C397.067 73 400 70.3333 400 67.0476V28.9524C400 25.6667 397.067 23 393.452 23ZM362.024 42.0476V64.6667H354.167V42.0476H362.024ZM354.167 35.4643C354.167 33.7976 355.738 32.5238 358.095 32.5238C360.452 32.5238 361.932 33.7976 362.024 35.4643C362.024 37.131 360.557 38.4762 358.095 38.4762C355.738 38.4762 354.167 37.131 354.167 35.4643ZM390.833 64.6667H382.976C382.976 64.6667 382.976 53.6429 382.976 52.7619C382.976 50.381 381.667 48 378.393 47.9524H378.288C375.119 47.9524 373.81 50.4048 373.81 52.7619C373.81 53.8452 373.81 64.6667 373.81 64.6667H365.952V42.0476H373.81V45.0952C373.81 45.0952 376.337 42.0476 381.418 42.0476C386.617 42.0476 390.833 45.2976 390.833 51.881V64.6667Z" fill="#F27405"/>
</g>
<g id="github">
<rect id="Rectangle 6" x="161" width="100" height="96" rx="10" fill="#2B3440"/>
<path id="Vector_2" d="M221.457 52.2564C218.996 52.2564 217.348 54.3161 217.348 57.6923C217.348 61.0685 218.568 64.5509 221.457 64.4872C224.495 64.4182 225.592 61.4666 225.565 57.6923C225.544 54.3161 223.912 52.2564 221.457 52.2564ZM236.88 36.039C237.255 34.2128 237.415 27.7471 234.713 21C234.713 21 228.508 21.6742 219.124 28.0656C217.161 27.5241 213.828 27.2534 210.5 27.2534C207.172 27.2534 203.845 27.5241 201.871 28.0603C192.492 21.6742 186.292 21 186.292 21C183.585 27.7471 183.719 34.0589 184.12 36.039C180.942 39.4629 179 43.5717 179 49.1881C179 73.6019 199.415 73.9947 204.567 73.9947C205.733 73.9947 208.05 73.9947 210.5 74C212.95 73.9947 215.272 73.9947 216.433 73.9947C221.585 73.9947 242 73.6019 242 49.1881C242 43.5717 240.058 39.4629 236.88 36.039ZM210.693 71.2821H210.5C197.585 71.2821 187.431 69.4612 187.431 57.0075C187.431 54.0241 188.496 51.2584 191.016 48.9598C195.221 45.1271 202.331 47.1549 210.404 47.1549C210.436 47.1549 210.57 47.1549 210.596 47.1549C218.669 47.1549 225.785 45.1324 229.99 48.9598C232.509 51.2584 233.569 54.0241 233.569 57.0075C233.569 69.4612 223.607 71.2821 210.693 71.2821ZM199.543 52.2564C197.088 52.2564 195.435 54.9956 195.435 58.3718C195.435 61.748 197.088 64.4872 199.543 64.4872C202.004 64.4872 203.652 61.748 203.652 58.3718C203.652 54.9956 202.004 52.2564 199.543 52.2564Z" fill="#F27405"/>
</g>
<g id="resume">
<rect id="Rectangle 5" width="100" height="96" rx="10" fill="#2B3440"/>
<path id="Vector_3" d="M40.5882 73H59.4118V49.4615H40.5882V73ZM18 73H36.8235V22H18V73ZM63.1765 73H82V49.4615H63.1765V73ZM40.5882 22V45.5385H82V22H40.5882Z" fill="#F27405"/>
</g>
</g>
</svg>
